<svg class="post-header-svg" xmlns="http://www.w3.org/2000/svg" viewBox="0 0 800 460" width="800" height="460">
  <rect stroke="currentColor" fill="none" class="bg" width="800" height="460"/>
  <rect class="brd" x="20" y="20" width="760" height="420" rx="12" ry="12" fill="none" stroke-width="1"/>

  <text fill="currentColor" class="t fg" x="48" y="90" font-size="42" font-weight="300" letter-spacing="-1">Week of Apr 5</text>
  <text fill="currentColor" class="t mut" x="48" y="126" font-size="16">platform sprint . monica to epiphany . arthur live . 11 repos</text>

  <line stroke="currentColor" fill="none" class="brd" x1="48" y1="152" x2="752" y2="152" stroke-width="1"/>

  <text fill="currentColor" class="m fg" x="48" y="188" font-size="14">epiphany</text>
  <text fill="currentColor" class="m fg" x="48" y="210" font-size="14">dose</text>
  <text fill="currentColor" class="m fg" x="48" y="232" font-size="14">nyc</text>
  <text fill="currentColor" class="m fg" x="48" y="254" font-size="14">tally</text>
  <text fill="currentColor" class="m fg" x="48" y="276" font-size="14">spark</text>
  <text fill="currentColor" class="m fg" x="48" y="298" font-size="14">nimble</text>
  <text fill="currentColor" class="m fg" x="48" y="320" font-size="14">life</text>
  <text fill="currentColor" class="m fg" x="48" y="342" font-size="14">school</text>
  <text fill="currentColor" class="m fg" x="48" y="364" font-size="14">arthur</text>
  <text fill="currentColor" class="m mut" x="48" y="386" font-size="14">(11 touched)</text>

  <rect class="brd" x="560" y="176" width="200" height="210" rx="8" ry="8" fill="none" stroke-width="1"/>
  <text fill="currentColor" class="m mut" x="584" y="206" font-size="12">repos</text>
  <text fill="currentColor" class="m fg" x="584" y="232" font-size="28" font-weight="500">11</text>
  <text fill="currentColor" class="m mut" x="584" y="266" font-size="12">ships</text>
  <text fill="currentColor" class="m fg" x="584" y="290" font-size="14">arthur live</text>
  <text fill="currentColor" class="m fg" x="584" y="312" font-size="14">tally v3.0.0</text>
  <text fill="currentColor" class="m fg" x="584" y="334" font-size="14">dose labs</text>
  <text fill="currentColor" class="m mut" x="584" y="360" font-size="12">window</text>
  <text fill="currentColor" class="m fg" x="584" y="378" font-size="13">Apr 5-11</text>

  <text fill="currentColor" class="t dim" x="48" y="422" font-size="13">2026-04-05 / merged 2026-04-18</text>
</svg>
